<svg width="512" height="512" viewBox="0 0 512 512" fill="none" xmlns="http://www.w3.org/2000/svg">
<circle cx="256" cy="256" r="247.467" stroke="white" stroke-width="17.0667"/>
<rect x="40.1378" y="71.7438" width="431.723" height="431.723" stroke="white" stroke-width="17.0667"/>
<path d="M169.476 202.627H177.414V210.565H169.476V202.627ZM161.538 202.627H169.476V210.565H161.538V202.627ZM161.538 210.565H169.476V218.503H161.538V210.565ZM177.414 194.689H185.352V202.627H177.414V194.689ZM177.414 186.751H185.352V194.689H177.414V186.751ZM185.352 186.751H193.29V194.689H185.352V186.751ZM185.352 194.689H193.29V202.627H185.352V194.689ZM193.29 186.751H201.228V194.689H193.29V186.751ZM201.228 194.689H209.166V202.627H201.228V194.689ZM193.29 194.689H201.228V202.627H193.29V194.689ZM193.29 202.627H201.228V210.565H193.29V202.627ZM201.228 202.627H209.166V210.565H201.228V202.627ZM201.228 210.565H209.166V218.503H201.228V210.565ZM209.166 202.627H217.103V210.565H209.166V202.627ZM217.103 202.627H225.041V210.565H217.103V202.627ZM217.103 210.565H225.041V218.503H217.103V210.565ZM209.166 210.565H217.103V218.503H209.166V210.565ZM232.979 218.503H240.917V226.441H232.979V218.503ZM225.041 218.503H232.979V226.441H225.041V218.503ZM225.041 226.441H232.979V234.378H225.041V226.441ZM232.979 226.441H240.917V234.378H232.979V226.441ZM232.979 234.378H240.917V242.316H232.979V234.378ZM232.979 242.316H240.917V250.254H232.979V242.316ZM225.041 242.316H232.979V250.254H225.041V242.316ZM225.041 234.378H232.979V242.316H225.041V234.378ZM225.041 250.254H232.979V258.192H225.041V250.254ZM225.041 258.192H232.979V266.13H225.041V258.192ZM232.979 258.192H240.917V266.13H232.979V258.192ZM232.979 250.254H240.917V258.192H232.979V250.254ZM225.041 266.13H232.979V274.068H225.041V266.13ZM232.979 266.13H240.917V274.068H232.979V266.13ZM232.979 274.068H240.917V282.006H232.979V274.068ZM225.041 274.068H232.979V282.006H225.041V274.068ZM225.041 282.006H232.979V289.944H225.041V282.006ZM225.041 289.944H232.979V297.882H225.041V289.944ZM232.979 289.944H240.917V297.882H232.979V289.944ZM232.979 282.006H240.917V289.944H232.979V282.006ZM272.669 218.503H280.607V226.441H272.669V218.503ZM280.607 218.503H288.545V226.441H280.607V218.503ZM280.607 226.441H288.545V234.378H280.607V226.441ZM280.607 234.378H288.545V242.316H280.607V234.378ZM280.607 242.316H288.545V250.254H280.607V242.316ZM280.607 250.254H288.545V258.192H280.607V250.254ZM280.607 258.192H288.545V266.13H280.607V258.192ZM280.607 266.13H288.545V274.068H280.607V266.13ZM280.607 274.068H288.545V282.006H280.607V274.068ZM272.669 274.068H280.607V282.006H272.669V274.068ZM272.669 282.006H280.607V289.944H272.669V282.006ZM272.669 289.944H280.607V297.882H272.669V289.944ZM280.607 289.944H288.545V297.882H280.607V289.944ZM280.607 282.006H288.545V289.944H280.607V282.006ZM272.669 266.13H280.607V274.068H272.669V266.13ZM272.669 226.441H280.607V234.378H272.669V226.441ZM225.041 329.634H232.979V337.572H225.041V329.634ZM225.041 321.696H232.979V329.634H225.041V321.696ZM225.041 313.758H232.979V321.696H225.041V313.758ZM225.041 305.82H232.979V313.758H225.041V305.82ZM232.979 305.82H240.917V313.758H232.979V305.82ZM232.979 297.882H240.917V305.82H232.979V297.882ZM232.979 313.758H240.917V321.696H232.979V313.758ZM232.979 321.696H240.917V329.634H232.979V321.696ZM232.979 329.634H240.917V337.572H232.979V329.634ZM225.041 297.882H232.979V305.82H225.041V297.882ZM272.669 337.572H280.607V345.51H272.669V337.572ZM280.607 337.572H288.545V345.51H280.607V337.572ZM280.607 329.634H288.545V337.572H280.607V329.634ZM280.607 321.696H288.545V329.634H280.607V321.696ZM280.607 313.758H288.545V321.696H280.607V313.758ZM280.607 305.82H288.545V313.758H280.607V305.82ZM280.607 297.882H288.545V305.82H280.607V297.882ZM272.669 297.882H280.607V305.82H272.669V297.882ZM272.669 305.82H280.607V313.758H272.669V305.82ZM272.669 313.758H280.607V321.696H272.669V313.758ZM272.669 321.696H280.607V329.634H272.669V321.696ZM272.669 329.634H280.607V337.572H272.669V329.634ZM169.476 194.689H177.414V202.627H169.476V194.689ZM201.228 186.751H209.166V194.689H201.228V186.751ZM209.166 194.689H217.103V202.627H209.166V194.689ZM232.979 210.565H240.917V218.503H232.979V210.565ZM217.103 218.503H225.041V226.441H217.103V218.503ZM225.041 210.565H232.979V218.503H225.041V210.565ZM209.166 218.503H217.103V226.441H209.166V218.503ZM217.103 226.441H225.041V234.378H217.103V226.441ZM209.166 186.751H217.103V194.689H209.166V186.751ZM217.103 194.689H225.041V202.627H217.103V194.689ZM225.041 202.627H232.979V210.565H225.041V202.627ZM185.352 202.627H193.29V210.565H185.352V202.627ZM193.29 210.565H201.228V218.503H193.29V210.565ZM201.228 218.503H209.166V226.441H201.228V218.503ZM209.166 226.441H217.103V234.378H209.166V226.441ZM217.103 234.378H225.041V242.316H217.103V234.378ZM272.669 345.51H280.607V353.448H272.669V345.51ZM272.669 353.448H280.607V361.386H272.669V353.448ZM280.607 353.448H288.545V361.386H280.607V353.448ZM280.607 361.386H288.545V369.324H280.607V361.386ZM280.607 345.51H288.545V353.448H280.607V345.51ZM272.669 361.386H280.607V369.324H272.669V361.386ZM264.731 361.386H272.669V369.324H264.731V361.386ZM256.793 361.386H264.731V369.324H256.793V361.386ZM240.917 218.503H248.855V226.441H240.917V218.503ZM248.855 218.503H256.793V226.441H248.855V218.503ZM248.855 226.441H256.793V234.378H248.855V226.441ZM248.855 234.378H256.793V242.316H248.855V234.378ZM248.855 242.316H256.793V250.254H248.855V242.316ZM248.855 250.254H256.793V258.192H248.855V250.254ZM248.855 266.13H256.793V274.068H248.855V266.13ZM248.855 282.006H256.793V289.944H248.855V282.006ZM248.855 289.944H256.793V297.882H248.855V289.944ZM248.855 297.882H256.793V305.82H248.855V297.882ZM248.855 305.82H256.793V313.758H248.855V305.82ZM248.855 313.758H256.793V321.696H248.855V313.758ZM248.855 329.634H256.793V337.572H248.855V329.634ZM248.855 321.696H256.793V329.634H248.855V321.696ZM248.855 274.068H256.793V282.006H248.855V274.068ZM248.855 258.192H256.793V266.13H248.855V258.192ZM240.917 226.441H248.855V234.378H240.917V226.441ZM240.917 234.378H248.855V242.316H240.917V234.378ZM240.917 242.316H248.855V250.254H240.917V242.316ZM240.917 266.13H248.855V274.068H240.917V266.13ZM240.917 274.068H248.855V282.006H240.917V274.068ZM240.917 282.006H248.855V289.944H240.917V282.006ZM240.917 289.944H248.855V297.882H240.917V289.944ZM240.917 297.882H248.855V305.82H240.917V297.882ZM240.917 305.82H248.855V313.758H240.917V305.82ZM240.917 313.758H248.855V321.696H240.917V313.758ZM240.917 321.696H248.855V329.634H240.917V321.696ZM240.917 329.634H248.855V337.572H240.917V329.634ZM240.917 258.192H248.855V266.13H240.917V258.192ZM240.917 250.254H248.855V258.192H240.917V250.254ZM272.669 258.192H280.607V266.13H272.669V258.192ZM272.669 250.254H280.607V258.192H272.669V250.254ZM272.669 242.316H280.607V250.254H272.669V242.316ZM272.669 234.378H280.607V242.316H272.669V234.378ZM232.979 361.386H240.917V369.324H232.979V361.386ZM240.917 361.386H248.855V369.324H240.917V361.386ZM248.855 361.386H256.793V369.324H248.855V361.386ZM225.041 353.448H232.979V361.386H225.041V353.448ZM232.979 353.448H240.917V361.386H232.979V353.448ZM240.917 353.448H248.855V361.386H240.917V353.448ZM232.979 369.324H240.917V377.262H232.979V369.324ZM232.979 377.262H240.917V385.2H232.979V377.262ZM225.041 369.324H232.979V377.262H225.041V369.324ZM225.041 361.386H232.979V369.324H225.041V361.386ZM248.855 353.448H256.793V361.386H248.855V353.448ZM256.793 353.448H264.731V361.386H256.793V353.448ZM264.731 353.448H272.669V361.386H264.731V353.448ZM217.103 353.448H225.041V361.386H217.103V353.448ZM209.166 353.448H217.103V361.386H209.166V353.448ZM209.166 361.386H217.103V369.324H209.166V361.386ZM217.103 361.386H225.041V369.324H217.103V361.386ZM201.228 369.324H209.166V377.262H201.228V369.324ZM193.29 377.262H201.228V385.2H193.29V377.262ZM240.917 369.324H248.855V377.262H240.917V369.324ZM248.855 369.324H256.793V377.262H248.855V369.324ZM248.855 377.262H256.793V385.2H248.855V377.262ZM240.917 377.262H248.855V385.2H240.917V377.262ZM256.793 369.324H264.731V377.262H256.793V369.324ZM264.731 369.324H272.669V377.262H264.731V369.324ZM256.793 377.262H264.731V385.2H256.793V377.262ZM296.483 369.324H304.421V377.262H296.483V369.324ZM288.545 369.324H296.483V377.262H288.545V369.324ZM296.483 377.262H304.421V385.2H296.483V377.262ZM304.421 377.262H312.359V385.2H304.421V377.262ZM312.359 369.324H320.297V377.262H312.359V369.324ZM304.421 369.324H312.359V377.262H304.421V369.324ZM288.545 353.448H296.483V361.386H288.545V353.448ZM296.483 353.448H304.421V361.386H296.483V353.448ZM304.421 353.448H312.359V361.386H304.421V353.448ZM312.359 353.448H320.297V361.386H312.359V353.448ZM312.359 361.386H320.297V369.324H312.359V361.386ZM304.421 361.386H312.359V369.324H304.421V361.386ZM296.483 361.386H304.421V369.324H296.483V361.386ZM288.545 361.386H296.483V369.324H288.545V361.386ZM320.297 353.448H328.235V361.386H320.297V353.448ZM328.235 353.448H336.173V361.386H328.235V353.448ZM320.297 361.386H328.235V369.324H320.297V361.386ZM336.173 345.51H344.111V353.448H336.173V345.51ZM336.173 337.572H344.111V345.51H336.173V337.572ZM288.545 210.565H296.483V218.503H288.545V210.565ZM296.483 210.565H304.421V218.503H296.483V210.565ZM296.483 202.627H304.421V210.565H296.483V202.627ZM256.793 210.565H264.731V218.503H256.793V210.565ZM264.731 210.565H272.669V218.503H264.731V210.565ZM272.669 210.565H280.607V218.503H272.669V210.565ZM248.855 210.565H256.793V218.503H248.855V210.565ZM256.793 202.627H264.731V210.565H256.793V202.627ZM264.731 202.627H272.669V210.565H264.731V202.627ZM288.545 218.503H296.483V226.441H288.545V218.503ZM201.228 361.386H209.166V369.324H201.228V361.386ZM193.29 369.324H201.228V377.262H193.29V369.324ZM328.235 345.51H336.173V353.448H328.235V345.51ZM288.545 345.51H296.483V353.448H288.545V345.51ZM217.103 250.254H225.041V258.192H217.103V250.254ZM209.166 250.254H217.103V258.192H209.166V250.254ZM209.166 258.192H217.103V266.13H209.166V258.192ZM217.103 258.192H225.041V266.13H217.103V258.192ZM217.103 282.006H225.041V289.944H217.103V282.006ZM209.166 282.006H217.103V289.944H209.166V282.006ZM209.166 289.944H217.103V297.882H209.166V289.944ZM217.103 289.944H225.041V297.882H217.103V289.944ZM201.228 250.254H209.166V258.192H201.228V250.254ZM193.29 250.254H201.228V258.192H193.29V250.254ZM193.29 258.192H201.228V266.13H193.29V258.192ZM201.228 258.192H209.166V266.13H201.228V258.192ZM201.228 282.006H209.166V289.944H201.228V282.006ZM193.29 282.006H201.228V289.944H193.29V282.006ZM193.29 289.944H201.228V297.882H193.29V289.944ZM201.228 289.944H209.166V297.882H201.228V289.944Z" fill="white"/>
</svg>
