<svg width="348" height="204" viewBox="0 0 348 204" fill="none" xmlns="http://www.w3.org/2000/svg">
<path fill-rule="evenodd" clip-rule="evenodd" d="M314.306 51.049C312.973 51.1422 312.418 52.8011 313.427 53.6777L337.707 74.771C338.333 75.3146 338.399 76.2625 337.855 76.8878L334.207 81.0824C333.663 81.7072 332.716 81.7734 332.091 81.2303L308.196 60.4713C307.187 59.595 305.622 60.3754 305.716 61.7083L307.911 93.0843C307.969 93.9108 307.346 94.6276 306.519 94.6854L300.97 95.0732C300.144 95.1309 299.427 94.5079 299.37 93.6815L297.157 62.0544C297.063 60.7164 295.394 60.1645 294.521 61.1829L172.735 203.258C172.453 203.587 172.042 203.778 171.609 203.782L146.902 203.995C146.501 203.998 146.116 203.841 145.831 203.558L140.023 197.78C139.598 197.358 139.466 196.723 139.686 196.166L191.137 65.8331C191.47 64.9908 190.986 64.0482 190.108 63.8276L189.019 63.554C188.402 63.3991 187.755 63.65 187.403 64.1802L95.3146 203.125C95.0386 203.541 94.5736 203.793 94.0742 203.796L76.3428 203.914C75.9444 203.916 75.5614 203.76 75.2782 203.48L69.8928 198.156C69.4648 197.732 69.3312 197.094 69.5534 196.535L121.435 65.9551C121.757 65.1443 121.322 64.2306 120.49 63.9698L118.825 63.4483C118.184 63.2475 117.512 63.4603 117.145 64.023C110.711 73.8835 53.862 161.001 25.9315 203.264C25.6538 203.684 25.1964 203.918 24.6928 203.918H6.59556C6.20588 203.918 5.8315 203.766 5.55167 203.495L0.709046 198.802C0.278774 198.385 0.137921 197.752 0.350795 197.192L47.5763 72.9398C47.9073 72.069 47.3727 71.1103 46.4579 70.934L43.1062 70.2882C42.5121 70.1737 41.9073 70.4274 41.5726 70.9316L9.62177 119.073C9.16916 119.755 8.25343 119.948 7.56388 119.507L2.42102 116.219C1.7092 115.763 1.51359 114.81 1.98856 114.112L49.5585 44.1263C49.8374 43.7159 50.3012 43.4701 50.7974 43.4695L80.3507 43.4377C80.7944 43.4372 81.2156 43.6332 81.5009 43.973L85.9664 49.29C86.3227 49.7142 86.4162 50.3004 86.2094 50.8144L46.3474 149.93C45.951 150.916 46.6767 151.99 47.7391 151.99H48.5668C49.068 151.99 49.5361 151.74 49.8144 151.323L121.404 44.079C121.684 43.6595 122.156 43.4089 122.661 43.4115C126.861 43.4332 131.597 43.4332 136.277 43.4332C140.974 43.4332 145.616 43.4332 149.602 43.4551C150.056 43.4576 150.484 43.6665 150.767 44.0221C152.752 46.5191 154.078 48.1703 155.385 49.7007C155.752 50.13 155.853 50.7273 155.642 51.251L115.667 150.265C115.365 151.015 115.711 151.869 116.45 152.198L117.337 152.592C118.003 152.887 118.785 152.662 119.191 152.057L191.678 44.0636C191.956 43.6486 192.423 43.3996 192.923 43.3996H221.143C221.688 43.3996 222.19 43.695 222.455 44.1714L225.769 50.1392C225.988 50.5341 226.017 51.0069 225.849 51.4261L175.168 177.691C174.871 178.431 175.205 179.274 175.928 179.61L178.74 180.916C179.347 181.199 180.068 181.044 180.507 180.537L288.705 55.4021C289.578 54.3927 288.797 52.8316 287.466 52.9246L254.856 55.2035C254.03 55.2613 253.313 54.6382 253.255 53.8119L252.867 48.2684C252.809 47.4419 253.433 46.7251 254.259 46.6673L285.859 44.459C287.192 44.3658 287.747 42.7069 286.738 41.8303L262.756 20.9957C262.13 20.4521 262.064 19.5042 262.608 18.8789L266.256 14.6843C266.8 14.0595 267.747 13.9933 268.372 14.5364L292.747 35.7119C293.755 36.5882 295.32 35.8078 295.227 34.4749L292.961 2.09338C292.903 1.26692 293.526 0.550085 294.353 0.492329L299.902 0.10456C300.728 0.0468119 301.445 0.669855 301.503 1.49621L303.78 34.0481C303.874 35.383 305.536 35.9368 306.411 34.9245L329.838 7.83028C330.371 7.21414 331.298 7.13575 331.927 7.6537L335.716 10.776C336.365 11.3101 336.448 12.2723 335.901 12.91L323.609 27.249L312.656 40.0269C311.79 41.0377 312.572 42.5923 313.9 42.4995L345.907 40.2627C346.733 40.205 347.45 40.828 347.507 41.6544L347.895 47.1979C347.953 48.0243 347.33 48.7412 346.504 48.7989L314.306 51.049Z" fill="white"/>
</svg>
